<?xml version="1.0" encoding="UTF-8" standalone="no"?>
<svg width="144px" height="36px" viewBox="0 0 144 36" version="1.1" xmlns="http://www.w3.org/2000/svg" xmlns:xlink="http://www.w3.org/1999/xlink" xmlns:sketch="http://www.bohemiancoding.com/sketch/ns">
    <!-- Generator: Sketch 3.3.3 (12081) - http://www.bohemiancoding.com/sketch -->
    <title>Artboard</title>
    <desc>Created with Sketch.</desc>
    <defs></defs>
    <g id="Page-1" stroke="none" stroke-width="1" fill="none" fill-rule="evenodd" sketch:type="MSPage">
        <g id="Artboard" sketch:type="MSArtboardGroup" fill="#7E7083">
            <path d="M18,5.32907052e-14 C8.05875,5.32907052e-14 1.0658141e-14,8.05875 1.0658141e-14,18 C1.0658141e-14,27.94125 8.05875,36 18,36 C27.94125,36 36,27.94125 36,18 C36,8.05875 27.94125,5.32907052e-14 18,5.32907052e-14 L18,5.32907052e-14 Z M13.59375,25.460625 L9.94875,25.460625 L9.94875,13.730625 L13.59375,13.730625 L13.59375,25.460625 L13.59375,25.460625 Z M11.74875,12.290625 C10.5975,12.290625 9.853125,11.475 9.853125,10.46625 C9.853125,9.436875 10.62,8.645625 11.795625,8.645625 C12.97125,8.645625 13.69125,9.436875 13.71375,10.46625 C13.71375,11.475 12.97125,12.290625 11.74875,12.290625 L11.74875,12.290625 Z M26.90625,25.460625 L23.26125,25.460625 L23.26125,18.96 C23.26125,17.446875 22.7325,16.419375 21.414375,16.419375 C20.4075,16.419375 19.809375,17.115 19.545,17.784375 C19.4475,18.0225 19.423125,18.36 19.423125,18.695625 L19.423125,25.45875 L15.77625,25.45875 L15.77625,17.47125 C15.77625,16.006875 15.729375,14.7825 15.680625,13.72875 L18.8475,13.72875 L19.014375,15.358125 L19.0875,15.358125 C19.5675,14.593125 20.743125,13.464375 22.71,13.464375 C25.108125,13.464375 26.90625,15.07125 26.90625,18.525 L26.90625,25.460625 L26.90625,25.460625 Z" id="linkedin" sketch:type="MSShapeGroup"></path>
            <path d="M90,1.70530257e-13 C80.05875,1.70530257e-13 72,8.05875 72,18 C72,27.94125 80.05875,36 90,36 C99.94125,36 108,27.94125 108,18 C108,8.05875 99.94125,1.70530257e-13 90,1.70530257e-13 Z M98,10 L82,10 C80.9,10 80,10.9 80,12 L80,24 C80,25.1 80.9,26 82,26 L98,26 C99.1,26 100,25.1 100,24 L100,12 C100,10.9 99.1,10 98,10 Z M84.5,11.75 C84.914,11.75 85.25,12.086 85.25,12.5 C85.25,12.914 84.914,13.25 84.5,13.25 C84.086,13.25 83.75,12.914 83.75,12.5 C83.75,12.086 84.086,11.75 84.5,11.75 L84.5,11.75 Z M81.75,12.5 C81.75,12.086 82.086,11.75 82.5,11.75 C82.914,11.75 83.25,12.086 83.25,12.5 C83.25,12.914 82.914,13.25 82.5,13.25 C82.086,13.25 81.75,12.914 81.75,12.5 L81.75,12.5 Z M98,24 L82,24 L82,15 L98,15 L98,24 L98,24 Z M98,13 L86,13 L86,12 L98.019,12 L98,13 L98,13 Z" id="web" sketch:type="MSShapeGroup"></path>
            <path d="M126.4875,17.96625 C126.549375,17.94375 126.615,17.926875 126.680625,17.908125 C126.525,17.56125 126.3525,17.20125 126.1575,16.813125 C122.6325,17.8575 119.2575,17.866875 118.655625,17.8575 C118.65,17.904375 118.65,17.953125 118.65,18 C118.65,19.771875 119.2875,21.474375 120.44625,22.81125 C120.8325,22.18875 122.88,19.134375 126.4875,17.96625 L126.4875,17.96625 Z M121.543125,23.836875 C122.835,24.826875 124.378125,25.35 126,25.35 C126.969375,25.35 127.910625,25.1625 128.80125,24.796875 C128.6775,24.0825 128.248125,21.9075 127.26,19.318125 C123.283125,20.724375 121.78125,23.371875 121.543125,23.836875 L121.543125,23.836875 Z M130.790625,12.425625 C129.4575,11.28 127.75875,10.65 126,10.65 C125.4675,10.65 124.933125,10.708125 124.40625,10.82625 C124.790625,11.341875 125.96625,12.975 127.070625,14.994375 C129.47625,14.07 130.56375,12.736875 130.790625,12.425625 L130.790625,12.425625 Z M125.446875,15.495 C124.306875,13.485 123.12,11.829375 122.79375,11.386875 C120.793125,12.35625 119.32125,14.210625 118.831875,16.370625 L118.86375,16.370625 C119.625,16.370625 122.330625,16.30875 125.446875,15.495 L125.446875,15.495 Z M128.83875,18.93 C129.710625,21.354375 130.111875,23.368125 130.22625,24.013125 C131.82375,22.888125 132.915,21.16125 133.243125,19.245 C132.916875,19.145625 131.739375,18.830625 130.258125,18.830625 C129.774375,18.830625 129.29625,18.864375 128.83875,18.93 L128.83875,18.93 Z M126,1.70530257e-13 C116.05875,1.70530257e-13 108,8.05875 108,18 C108,27.94125 116.05875,36 126,36 C135.94125,36 144,27.94125 144,18 C144,8.05875 135.94125,1.70530257e-13 126,1.70530257e-13 L126,1.70530257e-13 Z M126,26.806875 C121.14,26.806875 117.189375,22.85625 117.189375,18 C117.189375,13.14 121.14,9.189375 126,9.189375 C130.858125,9.189375 134.80875,13.141875 134.80875,18 C134.80875,22.85625 130.858125,26.806875 126,26.806875 L126,26.806875 Z M127.72875,16.26375 C127.891875,16.60125 128.04375,16.933125 128.1825,17.259375 C128.225625,17.36625 128.2725,17.47125 128.315625,17.578125 C128.835,17.51625 129.39,17.48625 129.969375,17.48625 C131.570625,17.48625 132.9,17.720625 133.34625,17.80875 C133.305,16.215 132.740625,14.66625 131.74875,13.42125 C131.44875,13.8075 130.215,15.226875 127.72875,16.26375 L127.72875,16.26375 Z" id="dribbble" sketch:type="MSShapeGroup"></path>
            <path d="M54,1.70530257e-13 C44.05875,1.70530257e-13 36,8.05875 36,18 C36,27.94125 44.05875,36 54,36 C63.94125,36 72,27.94125 72,18 C72,8.05875 63.94125,1.70530257e-13 54,1.70530257e-13 L54,1.70530257e-13 Z M61.321875,14.745 C61.329375,14.89875 61.33125,15.0525 61.33125,15.2025 C61.33125,19.89 57.766875,25.291875 51.245625,25.291875 C49.243125,25.291875 47.379375,24.706875 45.811875,23.698125 C46.0875,23.731875 46.370625,23.745 46.6575,23.745 C48.31875,23.745 49.846875,23.180625 51.06,22.228125 C49.509375,22.198125 48.200625,21.174375 47.74875,19.768125 C47.964375,19.8075 48.185625,19.83 48.414375,19.83 C48.736875,19.83 49.051875,19.786875 49.348125,19.70625 C47.72625,19.38 46.50375,17.9475 46.50375,16.23 L46.50375,16.186875 C46.981875,16.45125 47.529375,16.6125 48.110625,16.63125 C47.158125,15.99375 46.53375,14.91 46.53375,13.678125 C46.53375,13.029375 46.708125,12.418125 47.01375,11.895 C48.763125,14.04 51.373125,15.45 54.320625,15.601875 C54.25875,15.34125 54.22875,15.07125 54.22875,14.791875 C54.22875,12.83625 55.815,11.24625 57.774375,11.24625 C58.7925,11.24625 59.715,11.6775 60.361875,12.3675 C61.17,12.20625 61.9275,11.91375 62.611875,11.506875 C62.3475,12.33375 61.786875,13.029375 61.05375,13.47 C61.771875,13.381875 62.454375,13.1925 63.09,12.909375 C62.615625,13.62 62.01375,14.24625 61.321875,14.745 L61.321875,14.745 Z" id="twitter" sketch:type="MSShapeGroup"></path>
        </g>
    </g>
</svg>