<?xml version="1.0" encoding="UTF-8" standalone="no"?>
<svg width="139px" height="61px" viewBox="0 0 139 61" version="1.1" xmlns="http://www.w3.org/2000/svg" xmlns:xlink="http://www.w3.org/1999/xlink" xmlns:sketch="http://www.bohemiancoding.com/sketch/ns">
    <!-- Generator: Sketch 3.3.3 (12081) - http://www.bohemiancoding.com/sketch -->
    <title>favful-logo</title>
    <desc>Created with Sketch.</desc>
    <defs></defs>
    <g id="Page-1" stroke="none" stroke-width="1" fill="none" fill-rule="evenodd" sketch:type="MSPage">
        <g id="Home" sketch:type="MSArtboardGroup" transform="translate(-163.000000, -87.000000)" fill="#FFFFFF">
            <g id="Topbar" sketch:type="MSLayerGroup" transform="translate(163.000000, 87.000000)">
                <g id="favful-logo" transform="translate(0.000000, 0.708496)" sketch:type="MSShapeGroup">
                    <path d="M113.081961,40.7555884 C113.081961,43.0373775 113.542914,45.0539257 114.157288,45.4783112 C114.61801,45.7968394 115.386266,46.6458494 115.539686,47.0171867 C115.744477,47.4948594 116.512733,47.9194839 117.434408,48.0255803 C117.383037,47.7601004 117.383037,47.7070522 117.383037,46.4867048 C117.383037,42.0292229 118.919318,35.1305683 121.786856,26.8524217 C125.166257,17.141257 129.006611,9.9776004 134.331875,3.45052209 C133.768642,2.54846386 130.23559,0.425819277 128.596798,0.107291165 C125.063746,4.56477309 121.377043,12.4715823 117.178246,24.3582008 C114.56687,31.7873373 113.081961,37.6778373 113.081961,40.7555884 L113.081961,40.7555884 Z M102.31041,42.9843293 C103.89783,44.0985803 106.253275,45.0539257 107.174951,45.0539257 C107.174951,45.0539257 107.379742,45.0008775 107.379742,44.841494 C107.379742,44.1516285 106.253275,42.9843293 106.253275,39.9596265 C106.253275,34.3876546 110.19591,28.4443454 112.705006,22.2355562 C112.090633,21.4395944 109.632676,20.5375361 107.840696,20.5375361 C105.536391,22.8193253 104.461064,25.8970763 103.84669,27.6483835 C102.720223,30.7791827 100.211127,34.0163173 98.8284978,35.9795783 C96.0123304,39.9596265 94.6297011,41.7106948 93.6057454,42.1353193 C93.5032341,42.0292229 93.2473031,41.7106948 93.2473031,41.1799739 C93.2473031,39.3228092 94.7322123,34.493751 95.3977256,32.9018273 C98.4700554,25.3665944 101.286454,21.333498 101.900828,20.6436325 C100.876872,19.4232851 98.5211954,18.9986606 97.3435885,18.9986606 C93.0425119,22.2355562 89.4069487,31.2038072 88.1779705,36.5633474 C87.8706681,38.0491747 87.7683882,39.1106165 87.7683882,41.0738775 C88.3316217,43.5680984 91.1991603,45.1069739 93.3495829,45.2130703 C93.8105365,45.1600221 94.6810724,44.5232048 95.5513768,43.5680984 C96.6778438,42.1883675 100.364778,36.722492 100.92778,36.7755402 C100.774361,37.2532129 100.671849,37.8900301 100.671849,38.685992 C100.671849,39.9065783 101.030292,41.8698394 102.31041,42.9843293 L102.31041,42.9843293 Z M74.2318101,59.4875743 C75.3071371,53.4912169 79.4034226,39.7471948 84.5238951,23.8277189 L90.1564611,24.146008 C90.1050898,22.8193253 89.7980188,21.333498 89.4907164,21.0152088 L85.1896398,21.1743534 C88.1083184,12.100245 91.6413703,5.83840763 93.8943042,5.83840763 C93.6895131,7.21813855 93.6383731,7.69581124 93.6383731,8.12019679 C93.6383731,8.91615863 93.7408844,9.28773494 93.9968155,9.92455221 C94.1504667,10.6141787 94.2527465,11.3042831 94.3041179,12.100245 C94.3552578,13.214496 94.508909,13.6391205 94.9184913,13.6391205 C95.8401671,12.8962068 96.7618428,11.1979478 97.6323787,8.54482129 C98.041961,6.8998494 98.7074743,5.04244578 99.2709392,4.03429116 C98.6051944,3.55661847 98.041961,3.3444257 97.6835186,3.3444257 C96.966634,3.3444257 95.7376558,3.82185944 95.1232824,4.29953213 C94.7137001,4.29953213 93.8943042,4.14038755 93.0751397,4.14038755 C87.4937136,4.14038755 82.0150301,10.8796586 78.7890492,21.5989779 C76.2799528,21.9703153 73.8733678,22.5010361 73.2076231,22.7662771 C73.2076231,23.1909016 73.4126456,23.7744317 73.6685767,24.0399116 C74.8975548,23.8277189 75.9728818,23.7744317 78.2258157,23.7744317 C73.3612743,41.5515502 72.0811561,47.8664357 70.9546892,55.1361888 C72.0300162,55.773006 72.5421097,56.4628715 72.6957609,57.4712651 C72.8494121,58.4263715 73.3612743,59.1162369 74.2318101,59.4875743 L74.2318101,59.4875743 Z M51.8369164,25.3665944 C51.8369164,26.6402289 51.9905676,29.2933554 51.9905676,31.6281928 C51.9905676,39.6410984 50.147216,41.7106948 50.147216,43.4617631 C50.147216,44.7353976 51.222543,46.0090321 53.0145233,46.6988976 C57.6231336,43.7802912 60.5929521,40.8616847 63.8700731,36.8816365 C67.0958226,33.0609719 72.4724576,26.0564598 72.7283887,20.0068153 C72.3188064,19.5293815 70.4240835,18.7864679 69.553779,18.7864679 C68.2736609,23.8277189 66.0204956,28.60349 64.3819352,31.5220964 C61.9753501,35.6612892 58.4422982,40.2779157 56.4452954,41.8698394 C56.3430155,41.8698394 56.2916442,41.8698394 56.2916442,41.6576466 C57.4181111,37.8900301 57.5717623,34.3876546 57.6742736,29.5585964 C57.7765534,24.7828253 57.8790647,23.8807671 58.4422982,21.5459297 C57.8790647,21.0152088 56.4964353,20.8027771 55.5236196,20.8027771 C52.4001499,20.8027771 51.8369164,22.7662771 51.8369164,25.3665944 L51.8369164,25.3665944 Z M43.7792531,22.7132289 C42.2943439,25.8970763 40.2462011,29.8771245 38.8124318,32.3711064 C35.1257286,38.7390402 32.6677723,41.7106948 30.6710009,42.1353193 C30.2100473,41.9759357 29.9541162,41.6045984 29.9541162,40.8616847 C29.9541162,34.3346064 36.6617778,24.9419699 42.1406927,24.0399116 C41.9870415,22.7132289 39.6829677,20.219247 38.3003383,19.8476707 C32.7702835,20.1661988 25.3968772,30.9913755 25.3968772,38.8981847 C25.3968772,42.5597048 27.1377175,45.2130703 29.6468138,45.3191667 C32.8214235,44.7884458 37.3275226,39.4819538 40.0925499,33.0079237 C38.8124318,36.457251 38.1466871,39.3228092 38.1466871,41.2860703 C38.1466871,43.9394357 39.0683629,45.2130703 40.9117145,45.2130703 C41.9359015,45.2130703 43.4208108,44.7884458 44.2402067,44.2579639 C43.3185309,43.727243 42.9087173,42.347512 42.9087173,40.384012 C42.9087173,36.7755402 44.8034402,30.5139418 47.5684676,24.5706325 C47.6196075,23.8807671 45.2130224,22.7132289 43.7792531,22.7132289 L43.7792531,22.7132289 Z M20.9747771,22.0233635 C19.3362167,22.0233635 16.7759804,22.3418916 14.1132329,22.7662771 C17.9535873,13.7982651 18.9266344,11.6756205 19.7457989,10.4019859 C22.3571751,9.9776004 25.2247138,9.6060241 28.6554859,9.6060241 C29.6794415,9.6060241 30.9084197,9.65907229 33.0590737,9.87150402 C32.393329,6.79351406 31.1132109,4.98939759 29.5257903,4.98939759 C27.2217166,4.98939759 20.5138235,6.15669679 11.9628103,6.15669679 C9.9144362,6.15669679 8.83910921,6.10364859 7.55899109,5.89145582 C7.30306002,6.42217671 7.09826889,7.37728313 7.09826889,7.90800402 C7.09826889,9.9776004 8.83910921,11.3573313 11.4507168,11.3573313 L11.7066479,11.3573313 C10.836112,15.6554297 9.81215634,18.4679398 7.81515355,23.9868635 C5.5622197,24.5175843 3.87228791,24.9950181 3.51407698,25.3665944 C3.92365924,26.5338936 4.9476149,27.489239 6.33024429,27.9666727 C2.64354112,37.7308855 1.15840046,41.5515502 0.1344448,43.7802912 C1.72186532,46.4867048 3.41156571,47.9194839 5.7156395,48.4499659 C6.79096649,42.0820321 8.73682935,35.608241 11.8091591,28.1260562 C14.5741865,27.7544799 17.7999361,27.0115663 20.8211259,27.0115663 C22.3060352,27.0115663 23.3813622,27.1176627 24.2518981,27.2768072 C24.4566892,26.8524217 24.5078291,26.1625562 24.5078291,25.6318353 C24.5078291,23.3500462 23.1765711,22.0233635 20.9747771,22.0233635 Z M132.066667,45.3333333 C131.97975,45.2566666 131.250002,44.8705554 129.345422,43.4822215 C123.587933,39.2855531 124.873597,36.3672186 126.191345,35.0766625 C127.187093,34.1011066 128.493757,33.7549953 129.837754,34.1766622 C130.727919,34.4555512 131.469918,35.0894403 131.90275,35.8988851 C131.966917,36.0194407 132.064917,36.251663 132.064917,36.251663 C132.067833,36.251663 132.166416,36.0194407 132.230583,35.8988851 C132.662832,35.0894403 133.405414,34.4555512 134.295579,34.1766622 C135.638993,33.7549953 136.946241,34.1011066 137.941989,35.0766625 C138.869137,35.9846792 139.780403,37.6984994 138.233846,40.0964124 C137.582295,41.106632 136.494514,42.2382686 134.787911,43.4822215 C132.883332,44.8705554 132.153583,45.2566666 132.066667,45.3333333 Z" id="Fill-1"></path>
                </g>
            </g>
        </g>
    </g>
</svg>