<svg width="130" height="56" viewBox="0 0 130 56" xmlns="http://www.w3.org/2000/svg"><title>favful-logo</title><path d="M105.24 37.844c0 2.12.43 3.992 1 4.386.427.296 1.14 1.084 1.283 1.43.19.442.903.837 1.76.935-.048-.246-.048-.296-.048-1.43 0-4.138 1.426-10.544 4.09-18.23 3.137-9.018 6.703-15.67 11.648-21.73-.523-.84-3.804-2.81-5.326-3.105-3.28 4.14-6.704 11.48-10.603 22.518-2.424 6.9-3.803 12.37-3.803 15.226zm-10 2.07c1.473 1.035 3.66 1.922 4.516 1.922 0 0 .19-.05.19-.197 0-.642-1.046-1.726-1.046-4.535 0-5.174 3.66-10.692 5.99-16.458-.57-.74-2.852-1.576-4.516-1.576-2.14 2.12-3.138 4.977-3.71 6.603-1.045 2.908-3.375 5.914-4.66 7.737-2.614 3.695-3.898 5.32-4.848 5.716-.096-.1-.333-.395-.333-.887 0-1.726 1.38-6.21 1.997-7.688 2.852-6.997 5.468-10.742 6.038-11.383-.95-1.134-3.138-1.528-4.232-1.528-3.993 3.005-7.37 11.333-8.51 16.31-.286 1.38-.38 2.365-.38 4.188.522 2.316 3.185 3.745 5.182 3.844.428-.05 1.236-.64 2.044-1.528 1.046-1.28 4.47-6.357 4.993-6.307-.143.442-.238 1.034-.238 1.773 0 1.133.333 2.956 1.522 3.99zM69.165 55.238c.998-5.568 4.802-18.33 9.556-33.112l5.23.295c-.047-1.23-.332-2.61-.617-2.906l-3.994.148c2.71-8.426 5.992-14.24 8.084-14.24-.19 1.28-.238 1.724-.238 2.118 0 .74.095 1.084.333 1.676.14.64.236 1.28.284 2.02.048 1.035.19 1.43.57 1.43.856-.69 1.712-2.268 2.52-4.732.38-1.527 1-3.252 1.522-4.188-.618-.443-1.14-.64-1.474-.64-.666 0-1.807.443-2.377.886-.38 0-1.14-.147-1.902-.147-5.183 0-10.27 6.258-13.266 16.21-2.33.346-4.564.84-5.182 1.085 0 .394.19.936.428 1.183 1.14-.197 2.14-.247 4.23-.247-4.516 16.508-5.704 22.37-6.75 29.122.998.59 1.474 1.232 1.616 2.168.142.887.617 1.528 1.426 1.872zM48.37 23.555c0 1.182.143 3.646.143 5.814 0 7.44-1.712 9.36-1.712 10.987 0 1.183 1 2.366 2.664 3.006 4.28-2.71 7.037-5.42 10.08-9.116 2.995-3.548 7.988-10.052 8.226-15.67-.38-.443-2.14-1.132-2.948-1.132-1.19 4.68-3.28 9.115-4.803 11.826-2.235 3.844-5.516 8.13-7.37 9.61-.095 0-.143 0-.143-.198 1.046-3.498 1.188-6.75 1.284-11.235.096-4.434.19-5.272.714-7.44-.523-.493-1.807-.69-2.71-.69-2.9 0-3.424 1.823-3.424 4.238zm-7.482-2.464c-1.38 2.957-3.28 6.653-4.612 8.97-3.423 5.912-5.706 8.67-7.56 9.066-.428-.148-.665-.493-.665-1.183 0-6.06 6.23-14.783 11.317-15.62-.143-1.232-2.283-3.548-3.566-3.893-5.134.296-11.98 10.348-11.98 17.69 0 3.4 1.615 5.864 3.945 5.962 2.948-.493 7.132-5.42 9.7-11.432-1.19 3.203-1.807 5.864-1.807 7.687 0 2.464.856 3.647 2.567 3.647.95 0 2.33-.395 3.09-.887-.855-.493-1.235-1.774-1.235-3.598 0-3.35 1.76-9.166 4.327-14.684.047-.64-2.187-1.725-3.52-1.725zm-21.175-.64c-1.522 0-3.9.296-6.372.69 3.567-8.327 4.47-10.298 5.23-11.48 2.426-.395 5.09-.74 8.275-.74.95 0 2.092.05 4.09.246-.62-2.858-1.808-4.533-3.282-4.533-2.14 0-8.368 1.084-16.31 1.084-1.9 0-2.9-.05-4.088-.246-.238.493-.428 1.38-.428 1.873 0 1.922 1.617 3.203 4.042 3.203h.236c-.808 3.99-1.76 6.603-3.613 11.728-2.092.492-3.66.936-3.994 1.28.38 1.085 1.33 1.972 2.614 2.415C2.69 35.035 1.312 38.583.36 40.652c1.475 2.513 3.044 3.844 5.183 4.336 1-5.914 2.806-11.925 5.66-18.873 2.566-.345 5.562-1.035 8.367-1.035 1.38 0 2.377.1 3.186.246.19-.394.237-1.034.237-1.527 0-2.118-1.236-3.35-3.28-3.35zM122.87 42.095c-.08-.07-.76-.43-2.528-1.72-5.346-3.896-4.152-6.605-2.928-7.804.924-.905 2.138-1.226 3.386-.835.826.26 1.515.848 1.917 1.6.06.112.15.327.15.327.003 0 .095-.215.155-.327.4-.752 1.09-1.34 1.917-1.6 1.246-.39 2.46-.07 3.385.836.86.844 1.707 2.436.27 4.662-.604.938-1.614 1.99-3.2 3.144-1.767 1.29-2.445 1.648-2.526 1.72z" fill="#A54780" fill-rule="evenodd"/></svg>