<?xml version="1.0" encoding="UTF-8" standalone="no"?>
<svg width="22px" height="18px" viewBox="0 0 22 18" version="1.1" xmlns="http://www.w3.org/2000/svg" xmlns:xlink="http://www.w3.org/1999/xlink" xmlns:sketch="http://www.bohemiancoding.com/sketch/ns">
    <!-- Generator: Sketch 3.3.3 (12081) - http://www.bohemiancoding.com/sketch -->
    <title>Shape Copy 2</title>
    <desc>Created with Sketch.</desc>
    <defs></defs>
    <g id="Page-1" stroke="none" stroke-width="1" fill="none" fill-rule="evenodd" sketch:type="MSPage">
        <g id="About" sketch:type="MSArtboardGroup" transform="translate(-1246.000000, -109.000000)" fill="#FFFFFF">
            <g id="Topbar" sketch:type="MSLayerGroup" transform="translate(163.000000, 87.000000)">
                <path d="M1102.74867,26.4549105 C1102.75822,26.6506782 1102.76061,26.846446 1102.76061,27.037439 C1102.76061,33.0059685 1098.22214,39.884102 1089.91872,39.884102 C1087.36896,39.884102 1084.99588,39.1392295 1083,37.854802 C1083.35095,37.8977754 1083.71145,37.9144872 1084.07672,37.9144872 C1086.19197,37.9144872 1088.13771,37.1958763 1089.68237,35.9830711 C1087.70798,35.9448725 1086.04156,34.6413456 1085.4662,32.8507868 C1085.74075,32.9009224 1086.02246,32.9295714 1086.31373,32.9295714 C1086.72436,32.9295714 1087.12545,32.8746609 1087.50266,32.7720022 C1085.43755,32.3565925 1083.88095,30.5326099 1083.88095,28.3457406 L1083.88095,28.2908302 C1084.48974,28.6274552 1085.18687,28.8327727 1085.92697,28.8566468 C1084.71416,28.0449267 1083.91915,26.6650027 1083.91915,25.0964731 C1083.91915,24.2704286 1084.14118,23.4921324 1084.53033,22.8260445 C1086.75779,25.5572436 1090.08106,27.3525773 1093.83407,27.5459577 C1093.75529,27.2141074 1093.71709,26.8703201 1093.71709,26.5145958 C1093.71709,24.0245252 1095.73684,22 1098.23169,22 C1099.52805,22 1100.70266,22.5491047 1101.52632,23.4276723 C1102.55529,23.2223549 1103.5198,22.8499186 1104.39121,22.3318502 C1104.05458,23.3846989 1103.34075,24.2704286 1102.40727,24.8314704 C1103.32165,24.7192621 1104.19067,24.4781335 1105,24.1176343 C1104.39598,25.0224634 1103.62963,25.8198589 1102.74867,26.4549105 L1102.74867,26.4549105 Z" id="Shape-Copy-2" sketch:type="MSShapeGroup"></path>
            </g>
        </g>
    </g>
</svg>